<?xml version="1.0" standalone="no"?>
<!DOCTYPE svg PUBLIC "-//W3C//DTD SVG 20010904//EN"
 "http://www.w3.org/TR/2001/REC-SVG-20010904/DTD/svg10.dtd">
<svg version="1.0" xmlns="http://www.w3.org/2000/svg"
 width="700.000000pt" height="700.000000pt" viewBox="0 0 700.000000 700.000000"
 preserveAspectRatio="xMidYMid meet">
<metadata>
Created by potrace 1.14, written by Peter Selinger 2001-2017
</metadata>
<g transform="translate(0.000000,700.000000) scale(0.100000,-0.100000)"
fill="#000000" stroke="none">
<path d="M3127 6889 c-29 -46 -310 -514 -324 -539 -7 -14 -79 -133 -160 -265
-80 -132 -154 -253 -163 -270 -10 -16 -75 -124 -145 -240 -70 -115 -135 -223
-145 -240 -9 -16 -102 -169 -205 -340 -103 -170 -196 -326 -207 -345 -11 -19
-35 -58 -54 -87 -19 -28 -34 -54 -34 -58 0 -3 -17 -32 -38 -63 -21 -32 -41
-66 -45 -76 -7 -17 55 -140 166 -336 11 -19 30 -53 42 -75 12 -22 33 -60 47
-85 14 -25 40 -72 58 -105 18 -33 54 -98 80 -145 26 -47 61 -110 77 -140 17
-30 87 -158 157 -283 69 -125 126 -229 126 -231 0 -2 22 -41 48 -87 47 -82 68
-120 147 -264 21 -38 94 -171 163 -295 68 -124 143 -259 165 -300 22 -41 41
-76 43 -78 1 -2 21 27 44 65 22 37 45 75 50 83 11 17 173 288 199 332 9 15 40
66 69 113 28 48 52 90 52 95 0 5 3 10 8 12 8 3 34 45 59 96 18 35 15 45 -46
152 -19 33 -117 210 -189 343 -52 93 -94 170 -112 202 -216 386 -490 889 -490
897 0 9 104 183 521 873 106 176 266 441 355 590 l162 270 -35 65 c-56 103
-85 155 -168 305 -42 77 -93 169 -113 205 -19 36 -55 101 -80 145 -25 44 -51
91 -58 104 l-12 23 -15 -23z"/>
<path d="M4119 4950 c-30 -49 -119 -198 -199 -330 -80 -132 -149 -248 -155
-258 -5 -9 -27 -45 -47 -78 -21 -34 -38 -66 -38 -70 0 -5 28 -61 63 -124 35
-63 83 -151 107 -195 24 -44 52 -96 63 -115 11 -19 30 -54 43 -76 39 -69 335
-605 372 -674 20 -36 64 -116 99 -179 35 -62 63 -115 63 -117 0 -3 11 -22 25
-44 l25 -39 -71 -118 c-40 -65 -80 -131 -89 -148 -10 -16 -106 -176 -214 -355
-671 -1108 -656 -1082 -648 -1094 3 -5 0 -6 -6 -2 -25 15 -15 -24 26 -99 24
-44 58 -105 75 -135 280 -510 342 -620 349 -620 3 0 35 48 71 108 35 59 141
235 236 390 94 156 171 288 171 293 0 5 3 9 8 9 4 0 12 10 18 23 6 12 144 243
307 512 517 856 542 896 563 934 11 20 51 85 87 145 37 59 64 113 60 119 -3 6
-1 7 5 3 24 -14 12 31 -23 88 -19 32 -35 60 -35 62 0 2 -183 335 -331 601 -16
28 -39 71 -52 95 -31 57 -558 1012 -585 1060 -12 21 -38 68 -58 105 -84 154
-226 408 -229 411 -1 2 -27 -38 -56 -88z"/>
</g>
</svg>
