<?xml version="1.0" encoding="UTF-8" standalone="no"?>
<!-- Generator: Adobe Illustrator 25.0.1, SVG Export Plug-In . SVG Version: 6.00 Build 0)  -->

<svg
   version="1.0"
   id="katman_1"
   x="0px"
   y="0px"
   viewBox="0 0 450 450"
   xml:space="preserve"
   sodipodi:docname="web3.svg"
   width="450"
   height="450"
   inkscape:version="1.2.1 (9c6d41e4, 2022-07-14)"
   xmlns:inkscape="http://www.inkscape.org/namespaces/inkscape"
   xmlns:sodipodi="http://sodipodi.sourceforge.net/DTD/sodipodi-0.dtd"
   xmlns="http://www.w3.org/2000/svg"
   xmlns:svg="http://www.w3.org/2000/svg"><defs
   id="defs17" /><sodipodi:namedview
   id="namedview15"
   pagecolor="#ffffff"
   bordercolor="#000000"
   borderopacity="0.25"
   inkscape:showpageshadow="2"
   inkscape:pageopacity="0.0"
   inkscape:pagecheckerboard="0"
   inkscape:deskcolor="#d1d1d1"
   showgrid="false"
   inkscape:zoom="1.5575"
   inkscape:cx="290.5297"
   inkscape:cy="152.80899"
   inkscape:window-width="1961"
   inkscape:window-height="1486"
   inkscape:window-x="49"
   inkscape:window-y="25"
   inkscape:window-maximized="0"
   inkscape:current-layer="katman_1" />

<g
   id="g183"
   transform="translate(5.2102729,124.41091)"><path
     d="M 98.6,64 V 49.4 c 0,-5.3 -3.2,-10 -8.1,-12.1 L 0,0 v 8.1 l 80.7,33.3 c 2.8,1.1 2.8,5.1 0,6.2 L 0,80.9 v 32.5 l 48.6,-20.1 32,13.2 c 2.8,1.1 2.8,5.1 0,6.2 L 0,146 v 51.5 l 90.5,-37.3 c 4.9,-2 8.1,-6.8 8.1,-12.1 v -33.5 c 0,-5.3 -3.2,-10 -8.1,-12.1 L 58.4,89.3 90.5,76.1 c 4.9,-2 8.1,-6.8 8.1,-12.1 z"
     id="path2" /><g
     id="g12"
     transform="translate(-177.7,-201.2)">
	<path
   d="m 322.3,274.1 14.2,55.3 15.9,-55.3 h 15.2 l 15,55.3 14.8,-55.3 h 11.2 l -19.1,66.7 h -14.2 l -15.7,-57.5 -16.3,57.5 h -14.4 l -18.5,-66.7 z"
   id="path4" />
	<path
   d="m 425.7,310.7 c 0.4,5.5 1,8.3 2.8,11.8 3.3,6.3 10.8,10.4 18.3,10.4 9.1,0 15,-4.3 17.5,-12.8 h 12.4 c -3.1,14.4 -14,22.4 -30.1,22.4 -20.1,0 -32.9,-13.8 -32.9,-35.4 0,-21.1 12.8,-35.2 31.9,-35.2 20.3,0 31.3,13.8 31.3,38.6 h -51.2 z m 35.8,-20.4 c -3.1,-5.3 -9.4,-8.5 -15.9,-8.5 -11.2,0 -18.3,7.1 -19.7,19.9 h 38.8 c -0.6,-5.9 -1.4,-8.7 -3.2,-11.4 z"
   id="path6" />
	<path
   d="m 488.1,248.7 h 11.4 v 35.4 c 4.7,-7.9 11.2,-11.6 20.7,-11.6 16.5,0 28.3,14.4 28.3,35 0,20.6 -11.2,34.6 -28.2,34.6 -9.3,0 -15.4,-3.7 -21.3,-12.4 v 11 h -11 v -92 z m 11.6,58.5 c 0,14.6 8.3,25.4 19.1,25.4 10.4,0 17.3,-9.8 17.3,-25 0,-15.9 -6.9,-25.8 -17.7,-25.8 -10.8,0 -18.7,10.4 -18.7,25.4 z"
   id="path8" />
	<path
   d="m 569.2,312.7 c -0.2,11.8 7.3,19.5 19.1,19.5 10.6,0 18.3,-6.7 18.3,-15.9 0,-9.4 -7.3,-15.2 -19.1,-15.2 -1.2,0 -2.2,0 -3.9,0.2 v -10.2 c 1.4,0 2.2,0 3,0 12.2,0 19.3,-5.3 19.3,-14.8 0,-8.9 -6.9,-14.6 -17.3,-14.6 -11.2,0 -17.7,6.7 -18.1,18.5 h -12.2 c 0.8,-18.3 12,-28.9 30.5,-28.9 17.1,0 29.1,9.8 29.1,24 0,9.4 -6.7,18.1 -15.7,20.5 11,2.8 16.9,10.2 16.9,21.3 0,15 -12.8,25.6 -30.9,25.6 -18.9,0 -31.7,-12.2 -31.5,-29.9 -0.1,-0.1 12.5,-0.1 12.5,-0.1 z"
   id="path10" />
</g></g>
</svg>
