<svg width="132" height="25" viewBox="0 0 132 25" fill="none" xmlns="http://www.w3.org/2000/svg">
<g clip-path="url(#clip0_8541_2227)">
<path d="M69.3888 0.503406C69.3888 8.31612 69.3888 16.0825 69.3888 23.8705C67.8528 23.8705 66.3261 23.8705 64.7593 23.8705C64.7593 23.2369 64.7593 22.6034 64.7593 21.8833C64.648 21.9884 64.5924 22.0254 64.5553 22.078C63.5973 23.4069 62.2344 24.0404 60.6675 24.266C56.5634 24.8563 53.3245 22.1676 52.5241 18.1747C52.0204 15.6653 52.3541 13.2794 53.785 11.1161C55.6918 8.23268 59.0728 7.49097 61.7986 8.40884C62.6176 8.68389 63.316 9.17528 63.9372 9.76865C64.0423 9.86755 64.1288 9.98498 64.2215 10.0962C64.2555 10.0839 64.2895 10.0684 64.3235 10.0561C64.3235 9.91699 64.3235 9.77481 64.3235 9.63574C64.3235 6.73379 64.3297 3.83184 64.3143 0.926799C64.3112 0.577576 64.4193 0.494132 64.7531 0.500313C66.1623 0.518856 67.5685 0.5065 68.9778 0.5065C69.1014 0.503409 69.2219 0.503406 69.3888 0.503406ZM64.5924 16.1412C64.5182 15.7425 64.4811 15.3346 64.3699 14.9483C63.5849 12.2194 60.377 11.2583 58.3682 13.1682C57.2989 14.1849 57.0485 15.4984 57.2556 16.9169C57.5987 19.2502 59.7496 20.6595 61.9191 19.9765C63.4613 19.4882 64.5491 17.9059 64.5924 16.1412Z" fill="#290099"/>
<path d="M17.3514 17.4639C18.5721 18.6105 19.7867 19.7509 21.0507 20.9345C20.5964 21.3487 20.1792 21.772 19.7218 22.1398C17.9015 23.6016 15.7938 24.3309 13.479 24.47C10.9387 24.6215 8.50336 24.2135 6.27513 22.9186C3.28356 21.1787 1.52816 18.5456 0.937884 15.1615C0.51758 12.7571 0.703012 10.3806 1.68578 8.11835C3.00541 5.0866 5.28618 3.0778 8.423 2.09812C12.0265 0.973186 15.5342 1.23278 18.8719 3.08088C19.5981 3.48265 20.2255 4.02039 20.7694 4.64776C19.5642 5.82832 18.3681 6.9996 17.1598 8.18325C16.2975 7.04905 15.0366 6.50202 13.5903 6.31351C10.506 5.90865 7.70293 7.6795 6.83451 10.6711C6.08352 13.2578 6.39566 15.7086 8.23449 17.7823C9.5943 19.3151 11.3899 19.8281 13.3956 19.6489C15.0242 19.5067 16.3346 18.7681 17.3514 17.4639Z" fill="#290099"/>
<path d="M49.9095 17.5968C46.201 17.5968 42.511 17.5968 38.7869 17.5968C38.858 18.4436 39.2598 19.0678 39.8686 19.5685C41.5962 20.9963 44.2169 20.7707 45.7034 19.074C45.7528 19.0184 45.7807 18.9473 45.8239 18.8701C46.9705 19.5932 48.0522 20.2762 49.1338 20.9623C49.2049 21.0087 49.2667 21.0674 49.3563 21.1354C48.8742 21.8678 48.2716 22.4581 47.5701 22.9526C46.235 23.889 44.7299 24.3062 43.126 24.3989C41.1481 24.5133 39.2567 24.1888 37.5477 23.138C35.3751 21.8029 34.2347 19.8188 33.9843 17.3032C33.7865 15.3068 34.1018 13.4123 35.1927 11.6971C36.5402 9.58011 38.5304 8.45827 40.9781 8.12759C42.7273 7.89272 44.4332 8.07814 46.0155 8.91566C48.1449 10.0406 49.31 11.8887 49.7426 14.1942C49.9312 15.1924 49.9003 16.2308 49.9621 17.2507C49.9683 17.3588 49.9312 17.467 49.9095 17.5968ZM45.2769 14.4105C45.348 13.3072 44.6712 12.1977 43.7101 11.7836C42.4028 11.2211 40.6536 11.5426 39.6492 12.547C39.1423 13.0538 38.8147 13.6533 38.7931 14.4136C40.9719 14.4105 43.1105 14.4105 45.2769 14.4105Z" fill="#290099"/>
<path d="M100.102 17.5999C96.384 17.5999 92.694 17.5999 88.9761 17.5999C89.0348 18.4189 89.4242 19.0308 89.9991 19.5284C91.6865 20.9933 94.403 20.7924 95.8679 19.1081C95.9235 19.0432 95.973 18.9752 96.0409 18.8917C97.2277 19.6427 98.3804 20.3721 99.5579 21.1169C99.0603 21.871 98.4577 22.4612 97.7562 22.9557C96.4334 23.8829 94.9407 24.3032 93.3492 24.399C91.3589 24.5195 89.4551 24.1981 87.7338 23.138C85.5612 21.803 84.4208 19.8189 84.1705 17.3033C83.9727 15.3192 84.2848 13.4371 85.3603 11.728C86.7077 9.58942 88.7042 8.46141 91.1673 8.12764C92.9041 7.89277 94.5977 8.0751 96.1738 8.89717C98.3217 10.019 99.4961 11.8764 99.9319 14.1973C100.117 15.1955 100.089 16.2339 100.151 17.2538C100.154 17.3496 100.123 17.4485 100.102 17.5999ZM95.4569 14.4106C95.5527 13.3598 94.882 12.2287 93.9363 11.8022C92.6229 11.2119 90.8181 11.5395 89.8137 12.5656C89.3223 13.0693 89.0039 13.6627 88.9761 14.4106C91.1518 14.4106 93.2904 14.4106 95.4569 14.4106Z" fill="#290099"/>
<path d="M108.177 8.49846C108.177 9.18763 108.177 9.85827 108.177 10.634C108.31 10.4486 108.381 10.3558 108.446 10.26C110.511 7.32408 115.276 7.27772 117.325 10.1797C118.163 11.3664 118.45 12.7324 118.465 14.1417C118.499 17.3279 118.475 20.5173 118.475 23.7036C118.475 23.7499 118.465 23.7994 118.456 23.8705C116.775 23.8705 115.103 23.8705 113.382 23.8705C113.382 23.7252 113.382 23.5831 113.382 23.4409C113.378 20.6749 113.385 17.9059 113.363 15.1399C113.36 14.6887 113.283 14.2251 113.156 13.7924C112.661 12.1267 110.677 11.6167 109.392 12.8066C108.758 13.3907 108.483 14.1478 108.397 14.9792C108.356 15.3717 108.347 15.7673 108.347 16.1628C108.344 18.5703 108.344 20.9809 108.344 23.3883C108.344 23.546 108.344 23.7005 108.344 23.8766C106.635 23.8766 104.975 23.8766 103.294 23.8766C103.294 18.7465 103.294 13.641 103.294 8.50155C104.923 8.49846 106.53 8.49846 108.177 8.49846Z" fill="#290099"/>
<path d="M78.8765 8.49229C80.1127 8.49229 81.284 8.49229 82.4831 8.49229C82.4831 9.74702 82.4831 10.9739 82.4831 12.2441C81.2994 12.2441 80.122 12.2441 78.9136 12.2441C78.9043 12.4017 78.8951 12.5192 78.8951 12.6397C78.8951 14.494 78.892 16.3452 78.8981 18.1995C78.8981 18.4312 78.9198 18.6692 78.96 18.8979C79.133 19.893 79.6522 20.3504 80.6566 20.3411C81.1944 20.335 81.729 20.2484 82.3317 20.1897C82.3317 20.9592 82.3317 21.7689 82.3317 22.5786C82.3317 22.8012 82.3224 23.0237 82.3409 23.2462C82.3842 23.8303 82.3904 23.8334 81.8465 23.9632C80.4001 24.3155 78.9414 24.4051 77.4827 24.0683C75.5573 23.6232 74.4108 22.3963 74.1079 20.4524C74.0121 19.8436 73.9658 19.2255 73.9596 18.6105C73.941 16.645 73.9534 14.6825 73.9534 12.717C73.9534 12.581 73.9534 12.4481 73.9534 12.2688C73.1375 12.2688 72.3433 12.2688 71.5243 12.2688C71.5243 10.9987 71.5243 9.76865 71.5243 8.50465C72.3155 8.50465 73.1004 8.50465 73.9287 8.50465C73.9287 7.14175 73.9287 5.81284 73.9287 4.45921C75.5975 4.45921 77.22 4.45921 78.8858 4.45921C78.8765 5.78812 78.8765 7.11394 78.8765 8.49229Z" fill="#290099"/>
<path d="M122.872 12.2627C122.047 12.2627 121.259 12.2627 120.446 12.2627C120.446 11.0048 120.446 9.77792 120.446 8.49846C121.234 8.49846 122.029 8.49846 122.854 8.49846C122.854 7.13247 122.854 5.81285 122.854 4.4654C124.52 4.4654 126.151 4.4654 127.811 4.4654C127.811 5.79739 127.811 7.11703 127.811 8.47375C129.016 8.47375 130.194 8.47375 131.405 8.47375C131.405 9.74084 131.405 10.9678 131.405 12.2348C130.234 12.2348 129.053 12.2348 127.854 12.2348C127.842 12.3646 127.823 12.4604 127.823 12.5532C127.82 14.4569 127.82 16.3575 127.826 18.2613C127.826 18.4807 127.854 18.7063 127.891 18.9226C128.061 19.8745 128.574 20.3381 129.539 20.3381C130.089 20.3381 130.636 20.2484 131.241 20.1928C131.241 20.508 131.235 20.8696 131.241 21.2343C131.254 21.9884 131.272 22.7394 131.291 23.4934C131.297 23.6727 131.297 23.8241 131.065 23.8859C129.378 24.3402 127.678 24.4577 125.984 23.957C124.232 23.4409 123.314 22.1738 123.027 20.4215C122.925 19.8034 122.885 19.1699 122.879 18.5425C122.86 16.4688 122.872 14.3951 122.872 12.2627Z" fill="#290099"/>
<path d="M28.0476 23.8798C26.3509 23.8798 24.7006 23.8798 23.0225 23.8798C23.0225 18.7589 23.0225 13.6534 23.0225 8.52321C24.6264 8.52321 26.2242 8.52321 27.8652 8.52321C27.8652 9.22475 27.8652 9.92319 27.8652 10.6216C27.8931 10.634 27.924 10.6433 27.9518 10.6556C28.0167 10.5506 28.0785 10.4424 28.1434 10.3373C29.191 8.62519 31.0391 7.75678 32.8625 8.1091C33.0819 8.15236 33.1839 8.21725 33.1716 8.46449C33.1036 9.77176 33.0511 11.079 32.9892 12.3863C32.9862 12.4574 32.9583 12.5254 32.9552 12.5346C32.3001 12.5346 31.6696 12.4636 31.0577 12.547C29.2529 12.7973 28.0538 14.2313 28.0507 16.064C28.0476 18.5085 28.0507 20.9562 28.0507 23.4007C28.0476 23.5398 28.0476 23.6882 28.0476 23.8798Z" fill="#290099"/>
</g>
<defs>
<clipPath id="clip0_8541_2227">
<rect width="130.679" height="24" fill="white" transform="translate(0.726562 0.5)"/>
</clipPath>
</defs>
</svg>
