<svg id="Layer_2" data-name="Layer 2" xmlns="http://www.w3.org/2000/svg" viewBox="0 0 138.9 90" width="138.9" height="90">
  <defs>
    <style>
      .logo-cls-1 {
        fill: #060707;
      }

      .logo-cls-1, .logo-cls-2 {
        stroke-width: 0px;
      }

      .logo-cls-2 {
        fill: #5c9ed5;
      }
    </style>
  </defs>
  <g id="Resources">
    <g>
      <path class="logo-cls-2" d="m.02,24.67C0,9.62,15.18-1.45,31.1.15c6.1.61,11.78,2.83,16.41,6.71,1.13.95.91,1.01,1.31.64,9.7-8.98,26.43-10.22,37.94-1.94,3.18,2.29,3.66,3.44,3.91,3.21.1-.1.21-.19.31-.29,4.15-4.25,10.33-7.35,17.02-8.2,5.53-.7,10.8-.01,15.56,1.84,4.63,1.8,8.33,4.74,9.19,5.81.64.8,2.5,2.48,3.51,5.42,1.07,3.12.7,2.39,1.26,4.33.13.45.19.91.25,1.36.62,4.51.37-1.24.4,55.4,0,.36,0,.39.65,4.22.16.98.16.96-.18.97-.03,0-17.47,0-17.48,0-.31.06-.48-.11-.61-.36-.08-.16-.16-.33-.2-.5-.12-.46-.28-.91-.33-1.38-.02-.15-.07-.18-.2-.12-3.56,1.46-6.85,2.26-12.04,2.1-4.26-.14-11.21-2.31-16.46-6.66-.76-.63-.64-.64-.91-.42-.34.28-.67.56-1.01.83-2.5,1.97-5.25,3.47-8.23,4.56-4.79,1.75-9,2.08-13.3,1.91-2.29-.09-5.8-.68-9.07-1.84-3.08-1.1-5.91-2.64-8.48-4.66-.25-.2-.49-.41-.75-.61-.2-.16-.16-.12-.9.48C31.81,86.42,4.4,78.37.46,59.05-.15,56.01.03,57.45.02,24.67Zm18.46,19.47c-.42,0-.41-.02-.41.39,0,11.48-.09,11.17.27,12.67,2.06,8.59,12.76,10.89,18.15,4.23,1.52-1.87,2.27-4.03,2.34-6.44q0-.3.3-.3c1.09-.02,19.63,0,19.71,0,.14,0,.13.15.13.31,0,5.34,4.48,10.2,10.16,10.26.78,0,3.03.4,5.65-.63,5.43-2.14,6.51-8.14,1.78-12.1-.74-.62-1.57-1.08-2.41-1.51-4.53-2.32-9.44-4.81-14.8-6.74-.64-.23,2.27-.14-40.87-.15Zm61.56-18.92c-.52,0-.53.02-.54-.22,0,0-.02-1.7-.07-2.16-.4-4.01-3.84-7.61-9.11-8.19-.96-.02-1.92-.11-2.89-.03-8.69.76-9.53,9.53-1.2,14.16.76.42,7.4,3.4,8.72,4.09,6.95,3.65,8.09,4.26,12.16,7.2,1.04.75.59.37,2.52,2.09.97.87.89.87,1.07.71,1.08-.96,1.38-1.26,1.74-1.52,2.97-2.15,8.62-4.89,10.25-5.57,3.4-1.41,2.22-1,6.2-2.35,9.97-3.39,5.4-1.94,10.47-3.31.46-.12.42,0,.42-.56,0-3.78,0-7.56,0-11.34,0-.65.01-.64-.54-1.24-.68-.74-1.51-1.27-2.44-1.66-2.31-.97-4.55-.72-5.22-.72-3.33.01-6.99,1.78-8.82,4.95-1.16,2.02-1.08,3.52-1.13,5.12-.02.59.07.52-.51.52-3.25,0-4.89,0-21.1,0Zm39.75,19.48c-.01-.22-.21-.12-.48-.03-3.87,1.27-13.25,5.75-15.25,8.32-.07.09-.16.17-.24.25-3.41,3.46-2.85,8.48,1.49,10.88,3.07,1.7,6,1.13,6.81,1.14,2.37.03,5.49-1.18,7.53-3.6.11-.13.16-.26.15-.42,0-.09,0-.18,0-.27,0-17.17,0-16.09,0-16.28Zm-81.61-14.99c.47,0,.43.03.43-.44,0-1.93,0-3.86-.01-5.79,0-2.06-.97-4.54-3.18-6.39-6.56-5.48-17.37-1.38-17.35,6.55,0,1.86,0,3.73,0,5.59,0,.52-.05.48.47.48,3.05,0,17.67,0,19.63,0Z"></path>
      <path class="logo-cls-1" d="m34.98,86.28c0,1.09,0,2.18,0,3.28,0,.06,0,.13,0,.19,0,.06-.04.1-.09.1-.33,0-.67,0-1,0-.06,0-.08-.06-.08-.11,0-.1,0-.21,0-.31,0-.9,0-1.8,0-2.7,0-.33-.03-.67-.05-1,0-.14-.04-.28-.09-.41-.08-.18-.21-.28-.41-.31-.41-.05-.7.11-.86.49-.13.3-.16.62-.16.94,0,1,0,2,0,3.01,0,.13.03.26-.05.4-.34,0-.68,0-1.03,0-.08,0-.11-.06-.11-.13,0-.1,0-.21,0-.31,0-.95,0-1.9,0-2.85,0-.35,0-.69-.06-1.04-.04-.22-.15-.38-.35-.47-.35-.16-.79,0-.96.34-.09.17-.14.36-.16.55-.01.17-.02.33-.02.5,0,.99,0,1.98,0,2.97,0,.1,0,.21,0,.31,0,.09-.06.14-.15.14-.3,0-.59,0-.89,0-.13,0-.16-.03-.17-.15,0-.06,0-.13,0-.19,0-1.66,0-3.32,0-4.97,0-.08,0-.15,0-.23,0-.07.04-.12.11-.13.3,0,.59,0,.89,0,.06,0,.09.05.09.1,0,.16.01.33.02.49.11.02.12-.05.15-.1.38-.58,1.03-.75,1.7-.57.3.08.52.27.67.54.06.1.06.23.17.31.06-.1.12-.19.18-.28.21-.33.51-.53.9-.6.3-.06.59-.05.88.04.48.15.78.48.87.98.08.39.07.79.08,1.19Zm85.7,3.43c.01.07,0,.14-.09.14-.31,0-.62,0-.93,0-.07,0-.11-.05-.12-.12-.02-.2-.05-.4-.08-.66-.15.18-.25.31-.36.43-.3.31-.66.48-1.1.48-.1,0-.21,0-.31,0-.65-.04-1.16-.48-1.32-1.11-.1-.38-.09-.77.02-1.14.17-.57.53-.96,1.09-1.16.41-.15.85-.21,1.28-.23.09,0,.18,0,.27,0,.41,0,.35.04.36-.38,0-.19-.03-.38-.1-.57-.11-.31-.3-.45-.63-.46-.49-.02-.74.14-.91.6-.02.06-.04.12-.06.18-.02.06-.06.08-.12.07-.32-.04-.64-.08-.95-.13-.09-.01-.09-.08-.08-.14.15-.68.58-1.11,1.21-1.33.53-.19,1.09-.19,1.63-.06.2.05.39.14.56.25.34.23.54.55.59.95.03.29.06.59.06.88,0,.75,0,1.49,0,2.24,0,.42,0,.85.07,1.27Zm-1.71-2.62c-.25-.01-.52.03-.79.15-.26.12-.44.31-.53.58-.09.26-.09.53-.02.8.06.24.22.4.47.46.21.04.41.03.59-.09.19-.11.33-.28.44-.47.18-.32.25-.67.25-1.03,0-.44.05-.39-.42-.39Zm-26.86,2.51c.04.26-.03.25-.24.25-.24,0-.49,0-.73,0-.09,0-.14-.04-.15-.13-.02-.2-.05-.4-.08-.68-.16.23-.27.38-.41.52-.28.27-.61.41-1,.42-.12,0-.23,0-.35,0-.61-.05-1.05-.34-1.26-.92-.24-.67-.18-1.32.24-1.91.26-.36.63-.56,1.05-.67.44-.12.88-.16,1.33-.15.38,0,.34.03.33-.36,0-.21-.03-.41-.11-.6-.1-.28-.3-.43-.61-.45-.49-.02-.74.13-.92.59-.03.08-.06.17-.09.26-.18.05-.35-.03-.53-.04-.17-.01-.33-.04-.5-.06-.1-.02-.12-.06-.09-.17.15-.66.57-1.08,1.19-1.3.56-.2,1.13-.2,1.71-.05.09.02.17.06.25.1.49.23.79.6.85,1.15.03.32.06.64.06.96,0,.78,0,1.57,0,2.35,0,.31,0,.62.05.92Zm-1.26-2.39c0-.08-.05-.12-.12-.12-.21,0-.41,0-.62.01-.18.01-.35.07-.51.15-.25.13-.43.33-.5.6-.06.24-.07.48-.01.73.07.3.29.48.6.51.23.02.43-.04.6-.2.19-.16.33-.36.42-.59.1-.27.15-.54.15-.74,0-.18,0-.27,0-.36Zm-64.13-1.6c.11.37.17.92.17,1.37,0,.54-.06,1.08-.23,1.59-.07.2-.15.38-.26.55-.32.5-.78.77-1.37.83-.2.02-.41.03-.62.01-.72-.04-1.26-.39-1.61-1.02-.26-.47-.36-.99-.38-1.52-.02-.45-.03-.9.05-1.34.04-.24.09-.48.18-.71.32-.88.93-1.29,1.83-1.35.17-.01.33,0,.5.01.94.12,1.49.69,1.75,1.56Zm-1.23.16c-.04-.19-.12-.36-.24-.52-.31-.43-.96-.44-1.26.07-.1.17-.16.35-.21.54-.09.39-.1.79-.11,1.19.01.26.02.51.04.77.03.29.08.59.23.85.15.27.38.42.69.41.31,0,.54-.15.68-.42.07-.13.13-.28.16-.43.17-.81.16-1.63,0-2.45Zm107.12,1.25c0,.46-.03.95-.17,1.42-.03.09-.05.17-.08.26-.38.98-1.17,1.3-1.87,1.28-.24,0-.49,0-.73-.06-.64-.17-1.07-.59-1.33-1.19-.1-.22-.16-.46-.2-.7-.13-.85-.13-1.69.11-2.52.09-.31.23-.6.45-.84.37-.43.85-.6,1.4-.64.2-.01.41,0,.61.02.7.12,1.2.5,1.5,1.13.22.46.3.95.31,1.46,0,.12,0,.23,0,.37Zm-1.27-.04c.02-.32-.01-.66-.07-1.01-.04-.24-.1-.48-.25-.68-.36-.51-1.03-.45-1.3.05-.11.21-.18.42-.22.65-.1.55-.1,1.1-.06,1.65.02.24.05.49.13.72.04.12.09.24.16.35.3.48.98.48,1.29.01.09-.13.14-.27.18-.42.11-.43.15-.86.14-1.33Zm-115.75-1.29c.2.93.2,1.86-.05,2.78-.06.21-.15.41-.26.6-.32.53-.8.83-1.41.89-.33.03-.67.05-1-.04-.58-.15-1-.51-1.27-1.04-.24-.48-.32-1-.34-1.53,0-.12,0-.23,0-.35,0-.4.01-.8.1-1.19.07-.31.18-.62.35-.89.26-.43.64-.7,1.12-.82.38-.09.76-.11,1.15-.03.61.11,1.05.45,1.36.98.12.2.21.42.26.64Zm-1.13,1.3c0-.36-.02-.72-.09-1.07-.05-.25-.12-.5-.3-.7-.33-.39-.89-.37-1.19.04-.11.15-.17.31-.22.49-.2.83-.19,1.65-.02,2.48.03.16.09.32.18.47.31.5,1,.51,1.31.02.08-.13.13-.27.18-.42.12-.43.14-.86.14-1.3Zm92.85-1.08c.15.85.13,1.68-.09,2.52-.06.21-.14.41-.25.6-.31.54-.78.85-1.39.92-.34.04-.7.06-1.03-.03-.64-.17-1.08-.58-1.34-1.18-.2-.47-.27-.96-.28-1.47,0-.09,0-.18,0-.3,0-.46.02-.95.17-1.42.03-.1.06-.2.1-.29.32-.78.92-1.18,1.75-1.23.22-.01.43,0,.65.03.67.12,1.14.49,1.45,1.09.12.24.2.5.25.77Zm-1.18,1.09c0-.36-.02-.72-.08-1.07-.04-.24-.11-.48-.27-.67-.14-.18-.32-.29-.55-.31-.31-.03-.55.11-.71.37-.14.22-.2.47-.25.72-.11.67-.1,1.33,0,2,.03.2.08.4.18.59.09.18.22.32.41.39.39.16.81,0,1.01-.39.09-.18.15-.38.18-.59.06-.34.08-.69.08-1.04Zm-100.86-.63c0,.26.09.53-.01.79-.24.05-.48.02-.73.02-.67,0-1.34,0-2.01,0-.09,0-.18,0-.27,0-.08,0-.12.06-.11.13.03.4.03.8.19,1.17.2.45.65.66,1.11.54.24-.07.4-.22.51-.43.08-.15.13-.3.17-.47.02-.07.07-.11.14-.11.05,0,.1,0,.15.02.26.06.54.03.83.14-.11.49-.29.9-.62,1.25-.25.26-.55.42-.9.49-.38.08-.77.09-1.15,0-.66-.16-1.1-.58-1.39-1.18-.18-.39-.26-.81-.28-1.23-.04-.55-.02-1.1.12-1.65.11-.44.3-.84.6-1.19.76-.9,2.7-1.01,3.37.54.15.36.22.74.27,1.12,0,.01,0,.03,0,.04Zm-1.21-.47c-.03-.18-.06-.35-.14-.51-.15-.3-.38-.47-.72-.48-.36-.01-.62.13-.78.44-.15.28-.21.57-.23.88,0,.1.03.14.14.14.27,0,.54,0,.81,0h0c.18,0,.36,0,.54,0,.41,0,.48.09.4-.47Zm77.89,1.14c0,.1-.03.14-.13.15-.1,0-.21,0-.31,0-.77,0-1.54,0-2.31,0-.1,0-.21,0-.31,0-.06,0-.09.05-.09.1-.02.41,0,.82.17,1.21.1.23.28.4.51.5.42.18.86.02,1.1-.38.09-.16.15-.32.19-.5.02-.07.07-.11.14-.1.32.04.63.09.98.14-.08.38-.2.69-.39.97-.26.41-.63.67-1.1.78-.4.09-.82.1-1.22,0-.64-.16-1.08-.57-1.35-1.16-.12-.26-.19-.53-.24-.81-.1-.68-.09-1.36.06-2.03.12-.51.34-.96.71-1.34.75-.77,2.58-.88,3.25.59.08.18.14.36.19.54.11.44.12.89.16,1.33Zm-1.22-.79c0-.3-.05-.59-.17-.86-.14-.3-.37-.47-.72-.48-.36-.01-.62.13-.79.44-.14.26-.2.55-.23.85-.01.15.01.17.17.18.26,0,.51,0,.77,0h0c.28,0,.56,0,.85,0,.07,0,.12-.04.12-.12Zm-14.89-.63c.11.46.17.93.17,1.41,0,.12-.03.15-.16.15-.71,0-1.41,0-2.12,0-.28,0-.56,0-.88,0-.02.45.02.84.14,1.22.1.28.28.49.56.6.37.14.8.08,1.07-.36.12-.19.16-.4.24-.61.17-.06.33.03.49.04.17.01.33.04.5.07.06,0,.08.06.07.11-.25,1.06-.95,1.72-1.98,1.7-.24,0-.49,0-.73-.06-.62-.17-1.05-.57-1.32-1.15-.14-.29-.22-.6-.26-.92-.08-.71-.08-1.41.12-2.1.13-.45.35-.85.69-1.18.72-.73,2.51-.88,3.2.57.08.16.15.33.19.5Zm-1.05.64c0-.35-.04-.69-.23-1-.14-.22-.33-.35-.6-.36-.44-.03-.69.12-.89.52-.12.25-.16.51-.19.78-.01.12.02.16.15.16.27,0,.54,0,.81,0h0c.27,0,.54,0,.81,0,.07,0,.14-.03.14-.1Zm73.19-.13c0-.31-.03-.62-.05-.92-.04-.57-.45-1.07-1.1-1.16-.63-.09-1.18.05-1.54.62-.03.04-.06.08-.11.15-.03-.05-.04-.06-.05-.07-.05-.18.06-.39-.07-.56-.19,0-.38-.01-.58-.02-.04,0-.08,0-.12,0-.37,0-.36-.03-.36.35,0,1.66,0,3.32,0,4.98,0,.06,0,.13,0,.19,0,.13.04.16.16.16.3,0,.59,0,.89,0,.12,0,.15-.03.16-.17,0-.48,0-.95,0-1.43,0-.66,0-1.31.01-1.97,0-.22.04-.44.1-.65.11-.39.38-.67.88-.64.28.02.41.12.49.4.07.23.07.46.07.69,0,1.11,0,2.21,0,3.32,0,.1,0,.21,0,.31,0,.07.04.12.12.12.32,0,.64,0,.96,0,.07,0,.12-.05.12-.12,0-.1,0-.21,0-.31,0-1.09,0-2.19,0-3.28Zm-116.89.03c0-.35-.03-.69-.07-1.04-.05-.47-.32-.81-.75-.99-.69-.3-1.43-.08-1.88.53-.03.04-.05.13-.15.08,0-.15,0-.3,0-.45,0-.07-.03-.13-.11-.13-.32,0-.64-.02-.97.01,0,.07-.02.14-.02.2,0,1.75,0,3.49,0,5.24,0,.22,0,.22.25.23.15,0,.31,0,.46,0,.1,0,.21,0,.31,0,.13,0,.16-.03.17-.15,0-.1,0-.21,0-.31,0-.96,0-1.93,0-2.89,0-.26.03-.51.08-.76.04-.19.11-.37.25-.51.23-.24.52-.26.82-.19.28.07.33.33.37.57,0,.05.01.1.01.15,0,.23.02.46.02.69,0,.99,0,1.98,0,2.97,0,.1,0,.21,0,.31,0,.08.05.12.12.12.31,0,.62,0,.92,0,.12,0,.15-.04.15-.17,0-.06,0-.13,0-.19,0-1.1,0-2.21,0-3.31Zm50.08-.96c-.06-.68-.57-1.09-1.1-1.16-.63-.08-1.17.05-1.54.62-.02.03-.03.1-.1.09-.01-.02-.03-.04-.03-.06-.04-.17.05-.36-.06-.52-.18,0-.36-.01-.54-.02-.06,0-.13,0-.19,0-.34,0-.33-.02-.33.35,0,1.67,0,3.34,0,5.01,0,.05,0,.1,0,.15,0,.15.03.17.19.17.19,0,.39,0,.58,0,.49,0,.44.05.44-.43,0-.99,0-1.98,0-2.97,0-.28.02-.57.1-.84.12-.4.43-.64.82-.62.34.02.48.12.56.46.07.3.07.61.07.92,0,1,0,2,0,3.01,0,.1,0,.21,0,.31,0,.09.03.15.13.15.32,0,.64,0,.96,0,.05,0,.1-.03.1-.09,0-.08,0-.15,0-.23,0-1.09,0-2.18,0-3.28,0-.35-.03-.69-.06-1.04Zm30.23,1.72c-.31-.2-.64-.33-.98-.44-.28-.09-.56-.19-.82-.32-.26-.12-.39-.39-.33-.71.06-.29.29-.5.58-.53.43-.05.73.12.95.51.05.1.05.24.17.28.11.04.22-.03.33-.06.14-.04.27-.07.41-.11.1-.03.13-.08.1-.17-.18-.6-.52-1.05-1.14-1.26-.29-.09-.58-.11-.88-.08-.66.06-1.18.35-1.5.94-.45.84-.12,1.83.69,2.19.26.12.52.21.79.31.24.09.49.17.71.29.11.06.21.14.28.26.24.41,0,.94-.49,1.04-.54.11-1.04-.04-1.26-.66-.1-.27-.1-.27-.38-.22-.2.04-.4.08-.6.12-.07.02-.1.06-.1.14.06.66.54,1.23,1.18,1.43.27.09.55.11.84.09.13,0,.26,0,.38,0,.52-.05.97-.25,1.31-.65.46-.53.5-1.13.29-1.77-.09-.28-.31-.47-.55-.62Zm-49.03.09c-.17-.12-.34-.23-.53-.31-.26-.1-.53-.2-.79-.3-.21-.08-.43-.16-.64-.26-.25-.12-.32-.35-.3-.61.02-.26.21-.51.44-.58.36-.12.77,0,1,.32.08.11.15.24.2.37.02.08.09.1.15.08.24-.06.47-.12.71-.19.07-.02.09-.08.07-.15-.16-.51-.43-.95-.93-1.17-.65-.28-1.31-.27-1.93.09-.59.34-.89.88-.85,1.57.04.65.39,1.1.99,1.35.29.13.6.23.9.34.18.07.36.13.53.23.24.15.37.36.34.64-.03.28-.19.5-.47.6-.57.22-1.14-.04-1.37-.63-.1-.26-.11-.27-.38-.22-.2.04-.4.08-.6.12-.07.01-.11.06-.1.14.11.69.47,1.19,1.14,1.42.28.1.58.12.87.12.17,0,.33,0,.5-.03.94-.13,1.73-.89,1.6-2-.05-.39-.21-.71-.53-.94Zm44.27-.07c-.33-.21-.68-.35-1.05-.48-.27-.09-.53-.19-.79-.31-.3-.14-.4-.41-.32-.75.05-.2.26-.47.58-.5.44-.04.73.12.95.51.05.1.05.24.17.28.11.04.22-.03.34-.06.14-.04.27-.07.41-.11.1-.03.13-.08.11-.17-.22-.68-.62-1.17-1.37-1.3-.33-.06-.66-.06-.99.02-.96.22-1.55,1.2-1.29,2.12.13.46.42.79.86.98.31.13.62.24.93.36.19.07.39.13.56.24.24.15.37.37.34.64-.03.29-.19.5-.47.6-.56.21-1.14-.04-1.36-.59q-.12-.31-.43-.25c-.18.03-.35.06-.53.1-.13.03-.15.06-.13.19.14.7.51,1.19,1.21,1.4.26.08.53.09.85.09.32.02.67-.03,1.01-.18.79-.35,1.21-1.19,1.01-2.03-.08-.35-.29-.62-.6-.82Zm-41.37-1.5c.18-.35.44-.49.85-.46.34.03.53.24.62.55.05.17.08.35.12.52.02.09.06.14.16.13.29-.03.59-.06.88-.09.08,0,.11-.06.1-.13-.04-.4-.16-.78-.37-1.12-.26-.42-.63-.66-1.11-.76-.24-.05-.49-.06-.73-.04-.8.06-1.37.45-1.7,1.19-.09.2-.16.41-.2.62-.15.68-.15,1.38-.05,2.06.06.46.2.9.46,1.29.22.33.52.57.9.68.53.15,1.06.14,1.59-.03.18-.06.35-.16.49-.29.47-.42.65-.97.71-1.57,0-.07-.04-.11-.11-.12-.28-.02-.56-.05-.84-.08-.13,0-.14,0-.17.15-.05.23-.08.45-.19.66-.19.34-.5.47-.88.37-.21-.06-.36-.18-.48-.37-.09-.15-.15-.32-.2-.5-.09-.36-.08-.74-.07-1.11,0-.21-.01-.41,0-.62.03-.32.07-.64.22-.93Zm-45.19,2.39c-.23-.04-.45-.06-.69-.04-.04.17-.06.32-.1.46-.03.12-.08.25-.14.36-.22.39-.61.46-.96.32-.16-.06-.28-.18-.37-.33-.13-.21-.2-.44-.24-.69-.11-.64-.07-1.28.02-1.92.02-.16.07-.33.14-.48.17-.41.47-.58.92-.53.22.03.39.13.49.33.06.11.1.24.13.36.04.14.06.28.08.41.01.06.05.09.11.09.32-.03.64-.06.96-.1.06,0,.09-.06.08-.11-.07-.42-.17-.83-.41-1.19-.25-.37-.59-.6-1.03-.7-.34-.08-.69-.08-1.03-.02-.63.11-1.08.45-1.37,1.01-.1.19-.18.4-.24.61-.22.92-.22,1.83.02,2.75.07.27.19.53.35.77.31.45.74.71,1.28.76.24.02.49.02.73,0,.62-.06,1.08-.37,1.38-.92.12-.22.2-.44.25-.69.02-.15.14-.31.04-.44-.09-.12-.26-.06-.4-.08Zm99.97-2.47c.19-.31.48-.41.83-.37.32.03.51.23.59.53.05.19.09.37.13.56.02.08.06.12.13.11.31-.03.61-.06.92-.1.08,0,.1-.06.09-.14-.05-.32-.13-.63-.27-.92-.26-.53-.68-.86-1.26-.97-.23-.04-.46-.05-.69-.03-.75.06-1.31.41-1.65,1.1-.08.16-.15.33-.19.5-.12.45-.18.91-.15,1.37,0,.19-.01.39,0,.58.05.57.18,1.11.49,1.6.22.34.52.57.9.69.48.15.96.14,1.44.02.49-.12.84-.43,1.07-.87.11-.22.19-.45.24-.69.03-.14.04-.28.05-.42-.12-.1-.27-.06-.4-.08-.18-.03-.36-.04-.54-.05-.16,0-.17,0-.2.16-.04.22-.08.43-.18.63-.19.38-.59.53-.98.37-.2-.08-.34-.23-.43-.42-.09-.17-.15-.36-.18-.55-.11-.68-.09-1.36.02-2.03.03-.2.09-.4.2-.58Zm-69.47.19c.17-.43.48-.62.94-.56.22.03.39.13.49.33.07.14.12.28.15.43.03.14.06.27.09.42.36.02.7-.05,1.04-.09.06,0,.09-.06.08-.11-.07-.42-.17-.83-.42-1.19-.25-.37-.59-.59-1.03-.7-.25-.06-.51-.07-.77-.05-.8.06-1.38.44-1.71,1.18-.06.14-.11.29-.15.43-.21.76-.2,1.52-.1,2.29.06.42.19.83.41,1.19.31.51.77.78,1.36.83.22.02.44.02.65,0,.7-.06,1.2-.42,1.49-1.06.12-.27.2-.56.23-.85.02-.16.01-.18-.15-.19-.22-.02-.43-.05-.65-.06-.1,0-.2-.04-.3.02-.03.14-.06.27-.08.41-.03.15-.09.3-.17.43-.17.27-.45.39-.76.33-.24-.05-.43-.17-.55-.38-.11-.19-.18-.4-.22-.61-.11-.59-.09-1.17-.03-1.76.03-.23.06-.46.15-.68Zm33.46-.1c.1-.22.26-.39.5-.44.41-.08.81-.03.98.56.02.07.04.15.05.22.03.12.06.25.09.39.35,0,.69-.05,1.03-.1.06,0,.09-.06.08-.11-.07-.47-.2-.93-.5-1.31-.23-.29-.54-.47-.89-.57-.28-.07-.56-.08-.84-.06-.8.07-1.37.47-1.69,1.22-.1.24-.17.48-.22.74-.11.57-.1,1.15-.05,1.73.04.5.18.98.45,1.42.31.51.77.78,1.36.83.22.02.44.02.65,0,.7-.06,1.2-.42,1.49-1.06.13-.28.19-.58.24-.89.02-.1-.02-.15-.12-.16-.27-.03-.54-.05-.81-.07-.06,0-.13,0-.19.01-.03.16-.06.31-.1.46-.03.15-.1.29-.18.42-.14.21-.34.31-.58.31-.24,0-.45-.08-.61-.27-.18-.2-.26-.44-.31-.69-.13-.72-.1-1.43.02-2.15.03-.15.08-.3.14-.44Zm50.58,3.49c-.18,0-.36.01-.54,0-.37-.02-.57-.21-.6-.57-.02-.19-.02-.38-.02-.58,0-.76,0-1.52,0-2.27,0-.09,0-.18,0-.27,0-.08.05-.11.12-.11.27,0,.54,0,.81,0,.09,0,.14-.05.14-.14,0-.23,0-.46,0-.69,0-.09-.05-.14-.14-.14-.21,0-.41,0-.62,0-.05,0-.1,0-.15,0-.14,0-.16-.02-.16-.15,0-.42,0-.85,0-1.27,0-.11-.04-.15-.13-.14-.28.02-.56.05-.84.08-.09,0-.14.05-.14.15,0,.17-.01.33-.02.5,0,.23-.01.46-.03.69,0,.13-.04.15-.17.15-.19,0-.38,0-.58,0-.05.3-.02.59-.02.87,0,.08.06.1.13.1.15,0,.31,0,.46,0,.08,0,.12.03.12.11,0,.09,0,.18,0,.27,0,.78,0,1.57,0,2.35,0,.35.03.69.08,1.04.04.33.19.61.46.81.19.14.41.21.64.23.35.03.69.02,1.04-.02.05,0,.1-.02.15-.03.05-.01.1-.05.1-.11,0-.26,0-.51,0-.77,0-.06-.05-.09-.1-.09Zm2.15-4.67c0-.06-.04-.09-.1-.09-.33,0-.67,0-1,0-.06,0-.09.05-.09.1,0,.06,0,.13,0,.19,0,1.69,0,3.39,0,5.08,0,.06,0,.13,0,.19,0,.06.04.1.1.1.33,0,.67,0,1,0,.06,0,.09-.05.09-.1,0-.1,0-.21,0-.31,0-.8,0-1.59,0-2.39s0-1.64,0-2.47c0-.1,0-.21,0-.31Zm-89.02.07c0-.15-.02-.17-.19-.17-.22,0-.44,0-.65,0-.37,0-.36-.03-.36.35,0,1.67,0,3.34,0,5.01,0,.05,0,.1,0,.15,0,.15.03.17.19.17.18,0,.36,0,.54,0,.12,0,.23,0,.35,0,.07,0,.12-.04.13-.11,0-.08,0-.15,0-.23,0-.83,0-1.67,0-2.5,0-.8,0-1.59,0-2.39,0-.09,0-.18,0-.27Zm77.19.21c0-.06,0-.13,0-.19,0-.16-.03-.18-.17-.19-.3,0-.59,0-.89,0-.07,0-.12.03-.13.11,0,.1,0,.21,0,.31,0,.81,0,1.62,0,2.43s0,1.59,0,2.39c0,.1,0,.21,0,.31,0,.09.06.13.15.13.28,0,.57,0,.85,0,.15,0,.18-.03.19-.17,0-.06,0-.13,0-.19,0-1.65,0-3.29,0-4.94Zm-54.73-.28c0-.06-.04-.1-.1-.1-.18,0-.36,0-.54,0-.14,0-.28,0-.42,0-.08,0-.12.05-.12.12,0,.1,0,.21,0,.31,0,1.44,0,2.88,0,4.32,0,.3-.07.61.05.91.3.06.61.01.92.03.04,0,.08,0,.12,0,.06,0,.09-.04.1-.1,0-.09,0-.18,0-.27,0-.81,0-1.62,0-2.43s0-1.65,0-2.47c0-.1,0-.21,0-.31Zm.02-2.06c-.19-.11-.4-.01-.56-.05-.2,0-.37,0-.53,0-.09,0-.14.05-.14.14,0,.32,0,.64,0,.96,0,.1.06.13.15.13.17,0,.33,0,.5,0,.19,0,.38.02.57-.02.09-.19.04-.4.05-.6,0-.19.04-.38-.03-.57Zm54.75.1c0-.09-.04-.14-.14-.14-.36,0-.72,0-1.11,0,0,.41-.01.81,0,1.19.07.06.14.05.2.05.33-.01.67.03,1-.03.1-.35.02-.71.04-1.07Zm-77.23-.15c-.38,0-.73,0-1.08,0-.12,0-.15.03-.15.16,0,.31,0,.62,0,.93,0,.1.04.14.14.14.3,0,.59,0,.89,0,.07,0,.15.02.23-.08-.01-.35.02-.74-.02-1.15Zm88.93,0c-.33,0-.67,0-1,0-.1,0-.14.06-.13.15.02.35-.06.71.04,1.06.33.05.66.01.99.02.04,0,.08,0,.12,0,.06,0,.09-.04.09-.1,0-.17,0-.33,0-.5h0c0-.17,0-.33,0-.5,0-.07-.03-.12-.11-.12Z"></path>
    </g>
  </g>
</svg>
