<svg width="117" height="40" viewBox="0 0 117 40" fill="none" xmlns="http://www.w3.org/2000/svg">
<path d="M40.0117 28.428V38.8609C39.2875 38.9959 38.5536 39.0677 37.8178 39.0755C33.9042 39.0755 30.6423 37.7456 28.0323 35.0858C25.4222 32.426 24.1172 29.0899 24.1172 25.0774C24.1172 21.176 25.4362 17.8688 28.0742 15.1558C30.7123 12.4428 33.9174 11.0855 37.6896 11.084C41.9008 11.084 45.22 12.356 47.6474 14.9002C50.0748 17.4443 51.2878 20.9174 51.2863 25.3194V38.5026H41.5252V26.0566C41.5252 24.6324 41.1893 23.5026 40.5177 22.6581C40.1945 22.244 39.782 21.9138 39.3132 21.6939C38.8444 21.4739 38.3322 21.3703 37.8178 21.3913C36.8156 21.4014 35.8573 21.817 35.1485 22.5489C34.4396 23.2807 34.0368 24.2705 34.0264 25.3057C34.0109 25.8093 34.093 26.311 34.2679 26.7814C34.4428 27.2517 34.707 27.6812 35.0449 28.0446C35.3791 28.4008 35.7817 28.6809 36.2269 28.8668C36.6721 29.0528 37.15 29.1404 37.63 29.1242C38.4717 29.1302 39.2978 28.8888 40.0117 28.428Z" fill="#007AD7"/>
<path d="M70.1034 12.1953H79.8623V18.0976C79.8623 19.7912 79.6237 21.153 79.1465 22.1831C78.6692 23.2133 77.8466 24.1262 76.6786 24.922C77.8569 25.7483 78.6832 26.6559 79.1575 27.6449C79.6318 28.634 79.8667 29.9274 79.8623 31.525V39.073H70.1034V30.9613C70.1034 29.108 69.4766 28.1821 68.2231 28.1836C67.0035 28.1836 66.3937 28.9832 66.3937 30.5824V39.0753H56.6348V31.9016C56.6348 30.2492 56.9294 28.9018 57.5185 27.8595C58.1077 26.8172 59.1204 25.838 60.5565 24.922C59.1115 23.9497 58.0989 22.9257 57.5185 21.8499C56.9382 20.7741 56.6436 19.3986 56.6348 17.7233V12.1953H66.3937V18.9923C66.3692 19.6132 66.5552 20.2235 66.9196 20.7178C67.0737 20.9299 67.274 21.1015 67.5044 21.2185C67.7347 21.3355 67.9886 21.3946 68.2452 21.3911C69.481 21.3911 70.0989 20.5915 70.0989 18.9923L70.1034 12.1953Z" fill="#007AD7"/>
<path d="M94.9465 12.1959V39.0759H85.1875V12.1959H94.9465ZM90.0902 0.19957C90.7268 0.191732 91.3585 0.315059 91.9484 0.562343C92.5383 0.809627 93.0745 1.17591 93.5258 1.63977C93.9855 2.07408 94.3518 2.60321 94.6011 3.19295C94.8503 3.78268 94.977 4.41989 94.973 5.06339C94.9927 5.70637 94.8807 6.3464 94.6443 6.94153C94.4078 7.53666 94.0523 8.07344 93.6009 8.51667C92.6885 9.41366 91.5153 9.86329 90.0902 9.86329C88.6651 9.86329 87.4963 9.40681 86.5794 8.51667C86.1285 8.07324 85.7734 7.53637 85.5373 6.94125C85.3012 6.34613 85.1896 5.7062 85.2096 5.06339C85.2054 4.41966 85.3323 3.78221 85.5819 3.1924C85.8316 2.6026 86.1986 2.07361 86.659 1.63977C87.1098 1.17656 87.6454 0.810668 88.2345 0.563408C88.8235 0.316148 89.4544 0.192467 90.0902 0.19957Z" fill="#007AD7"/>
<path d="M117 11.8398V22.469C115.626 22.469 114.682 22.7345 114.17 23.2656C113.657 23.7966 113.331 24.8435 113.191 26.4062C112.74 31.607 110.791 35.2726 107.345 37.4028C105.515 38.5197 102.922 39.0766 99.5653 39.0736H98.2109V28.3987H98.6528C100.217 28.3987 101.334 28.0632 102.004 27.3922C102.675 26.7212 103.061 25.5381 103.164 23.843C103.312 21.095 103.56 19.1633 103.909 18.048C104.258 16.9327 104.985 15.8272 106.09 14.7317C108.005 12.8083 110.656 11.8467 114.044 11.8467L117 11.8398Z" fill="#007AD7"/>
<path d="M0.532798 25.5563L6.36344 3.08594H14.6399L9.16055 24.1937C9.16055 24.1937 7.77304 30.9907 15.6629 31.5111H21.5554L19.4078 39.7985H10.3139C10.3139 39.7985 -2.76365 39.4812 0.532798 25.5563Z" fill="#007AD7"/>
</svg>
