<svg xmlns="http://www.w3.org/2000/svg" width="148.742" height="46.094" viewBox="0 0 148.742 46.094">
    <defs>
        <style>
            .prefix__cls-1{fill:#fff}
        </style>
    </defs>
    <g id="prefix__Group_1" data-name="Group 1" transform="translate(-530 -391.121)">
        <path id="prefix__Path_1" d="M593.574 426.112h.391l-.064-.084h-.327zM607.434 444h.353v-.111h-.436l.083.111m1 .652h-1.164v-.326l.262-.195-.262.195v.326h-.164l-12.953-17.339v17.339h-1.232v-19.276h1.3l12.981 17.316v-17.316h1.231v19.277" class="prefix__cls-1" data-name="Path 1" transform="translate(-38.292 -20.847)"/>
        <path id="prefix__Path_2" d="M678.5 444.653h-11.612v-.326.326h-.326v-19.277h11.516v1.178h-10.285v7.53h9.681v1.178h-9.681v8.214H678.5v1.178z" class="prefix__cls-1" data-name="Path 2" transform="translate(-83.108 -20.846)"/>
        <path id="prefix__Path_3" d="M735.486 425.21299999999997a8.65 8.65 0 0 0-3.5.7 8.344 8.344 0 0 0-2.749 1.911 8.636 8.636 0 0 0-1.787 2.854 9.693 9.693 0 0 0-.635 3.526 9.823 9.823 0 0 0 .624 3.528 8.566 8.566 0 0 0 1.762 2.853 8.174 8.174 0 0 0 2.733 1.91 9.418 9.418 0 0 0 7.106 0 8.173 8.173 0 0 0 2.733-1.91 8.571 8.571 0 0 0 1.762-2.853 9.861 9.861 0 0 0 .623-3.528 9.655 9.655 0 0 0-.636-3.526 8.626 8.626 0 0 0-1.788-2.854 8.328 8.328 0 0 0-2.747-1.911 8.657 8.657 0 0 0-3.5-.7m0 19.152a10.136 10.136 0 0 1-3.94-.761 9.456 9.456 0 0 1-3.146-2.113 9.656 9.656 0 0 1-2.069-3.211 11.515 11.515 0 0 1 0-8.161 9.682 9.682 0 0 1 2.068-3.219 9.468 9.468 0 0 1 3.132-2.111 10.092 10.092 0 0 1 3.953-.763 10.1 10.1 0 0 1 3.954.763 9.458 9.458 0 0 1 3.131 2.111 9.7 9.7 0 0 1 2.07 3.211 11.531 11.531 0 0 1 0 8.161 9.682 9.682 0 0 1-2.069 3.211 9.454 9.454 0 0 1-3.146 2.113 10.126 10.126 0 0 1-3.938.761" class="prefix__cls-1" data-name="Path 3" transform="translate(-119.026 -20.028)"/>
        <path id="prefix__Path_4" d="M808.089 426.112h.391l-.064-.084h-.327zM821.948 444h.352v-.111h-.435l.083.111m1 .652h-1.167v-.326l.261-.195-.261.195v.326h-.164l-12.954-17.34v17.34h-1.231v-19.276h1.3l12.981 17.316v-17.316h1.23v19.277" class="prefix__cls-1" data-name="Path 4" transform="translate(-168.84 -20.847)"/>
        <path id="prefix__Path_5" d="M531.245 435.97H677.5v-43.6H531.245zm147.498 1.245H530v-46.094h148.742v46.094" class="prefix__cls-1" data-name="Path 5"/>
    </g>
</svg>
