<?xml version="1.0" encoding="UTF-8" standalone="no"?>
<!-- Created with Inkscape (http://www.inkscape.org/) -->

<svg
   width="1000pt"
   height="200pt"
   viewBox="1.5 -1 368.91677 73.783358"
   version="1.1"
   id="svg1286"
   inkscape:version="1.2.1 (9c6d41e4, 2022-07-14)"
   sodipodi:docname="logo-text.svg"
   xmlns:inkscape="http://www.inkscape.org/namespaces/inkscape"
   xmlns:sodipodi="http://sodipodi.sourceforge.net/DTD/sodipodi-0.dtd"
   xmlns="http://www.w3.org/2000/svg"
   xmlns:svg="http://www.w3.org/2000/svg">
  <sodipodi:namedview
     id="namedview1288"
     pagecolor="#ffffff"
     bordercolor="#000000"
     borderopacity="0.25"
     inkscape:showpageshadow="2"
     inkscape:pageopacity="0.0"
     inkscape:pagecheckerboard="true"
     inkscape:deskcolor="#d1d1d1"
     inkscape:document-units="mm"
     showgrid="false"
     showborder="false"
     inkscape:zoom="1.3331663"
     inkscape:cx="653.70688"
     inkscape:cy="277.15972"
     inkscape:window-width="3181"
     inkscape:window-height="1835"
     inkscape:window-x="49"
     inkscape:window-y="25"
     inkscape:window-maximized="0"
     inkscape:current-layer="layer1" />
  <defs
     id="defs1283" />
  <g
     inkscape:label="Layer 1"
     inkscape:groupmode="layer"
     id="layer1"
     transform="translate(-76.12495,-55.844218)">
    <g
       id="g1138"
       transform="matrix(8.3768192,0,0,8.3768192,-460.79525,-1105.4233)">
      <path
         d="m 92.019664,141.61833 -0.483764,0.51594 -0.140652,-0.12365 c -0.312985,-0.27531 -0.61461,-0.33623 -1.021257,-0.3393 -0.29083,-0.002 -0.927982,0.0782 -0.915599,0.47872 0.01132,0.36456 0.692256,0.44016 0.957544,0.48609 0.758049,0.13145 1.715629,0.28618 1.680246,1.27787 -0.03281,0.91796 -0.926148,1.21475 -1.705857,1.21475 -0.664422,0 -1.394178,-0.24634 -1.771474,-0.8255 l -0.09081,-0.13945 0.555414,-0.49378 0.124424,0.17886 c 0.261691,0.3763 0.74669,0.54296 1.189884,0.54296 0.337468,0 0.939377,-0.0688 0.9543,-0.51354 0.0021,-0.0676 -0.0096,-0.13258 -0.04819,-0.18923 -0.154199,-0.22666 -0.734095,-0.30191 -0.989471,-0.34371 -0.709013,-0.11621 -1.583514,-0.27531 -1.592756,-1.17994 -0.0092,-0.90114 0.89475,-1.22798 1.654915,-1.22354 0.5606,0.003 1.086768,0.15399 1.502269,0.54416 z m 2.01796,-0.61686 h 1.251831 v 0.69218 h -1.251831 v 2.04953 c 0,0.38718 0.03249,0.65614 0.484752,0.65614 0.161148,0 0.338596,-0.0609 0.48267,-0.13004 l 0.182386,-0.0876 0.277883,0.6538 -0.16577,0.0802 c -0.242852,0.11754 -0.504613,0.20556 -0.777169,0.20556 -0.891258,0 -1.229114,-0.54578 -1.229114,-1.37813 v -2.04953 h -0.782355 v -0.69218 h 0.782355 v -1.05386 l 0.744362,-0.0776 z m 5.168582,3.6281 c -0.358387,0.32939 -0.813329,0.49918 -1.311839,0.49918 -1.187415,0 -2.063609,-0.91478 -2.063609,-2.09345 0,-1.18124 0.878064,-2.07853 2.063609,-2.07853 0.48207,0 0.956627,0.16263 1.311839,0.48461 v -0.43991 h 0.751805 v 0.19335 c 0,1.227 0,2.45396 0,3.68096 v 0.19332 h -0.751805 z m 4.690534,-0.78726 0.51932,0.51933 -0.1368,0.13677 c -0.39434,0.39412 -0.92104,0.60798 -1.4779,0.60798 -1.20445,0 -2.08597,-0.86191 -2.08597,-2.07109 0,-1.22382 0.86699,-2.07109 2.08597,-2.07109 0.55383,0 1.08141,0.21943 1.47659,0.6066 l 0.14168,0.13889 -0.51756,0.50151 -0.13459,-0.13451 c -0.25382,-0.25369 -0.61006,-0.38305 -0.96612,-0.38305 -0.80694,0 -1.34164,0.53435 -1.34164,1.34165 0,0.8073 0.5347,1.34165 1.34164,1.34165 0.35705,0 0.70637,-0.14542 0.95864,-0.3979 z m 1.82915,-1.48085 1.46703,-1.35999 h 0.7535 v 0.29284 l -1.77137,1.63671 1.98744,1.83787 v 0.30021 h -0.73035 l -1.70625,-1.55815 v 1.55815 h -0.74436 v -5.61005 h 0.74436 z m -7.831523,-0.66781 c -0.776464,0 -1.311805,0.57411 -1.311805,1.34165 0,0.76613 0.534459,1.34909 1.311805,1.34909 1.794333,0 1.794333,-2.69074 0,-2.69074 z"
         style="fill:#1b1918;fill-rule:evenodd;stroke-width:0.352778"
         id="path347" />
      <path
         d="m 83.956152,143.29791 -0.904381,-2.29644 h -0.813717 l 1.552998,3.82753 -0.761965,1.77511 h 0.808144 l 0.176001,-0.4093 2.233153,-5.19334 h -0.816327 l -0.97402,2.28589 -0.249026,0.629 z"
         style="fill:#1b1918;fill-rule:evenodd;stroke-width:0.352778"
         id="path349" />
      <path
         d="m 80.094506,145.0691 1.704551,-4.06763 h -0.822536 l -1.211757,2.94192 -1.211791,-2.94192 h -0.822502 l 1.704481,4.06763 z"
         style="fill:#1b1918;fill-rule:evenodd;stroke-width:0.352778"
         id="path351" />
      <path
         d="m 75.56565,145.0691 1.704517,-4.06763 H 76.44763 l -1.211756,2.94192 -1.211792,-2.94192 h -0.822466 l 1.704481,4.06763 z"
         style="fill:#1b1918;fill-rule:evenodd;stroke-width:0.352778"
         id="path353" />
      <path
         d="m 72.655445,145.0691 v -4.06763 h -0.751769 v 0.43991 c -0.355247,-0.32198 -0.829804,-0.48461 -1.311804,-0.48461 -1.185616,0 -2.063715,0.89722 -2.063715,2.07853 0,1.17867 0.876265,2.09345 2.063715,2.09345 0.498475,0 0.953417,-0.16979 1.311804,-0.49918 v 0.43953 z m -2.063573,-3.37545 c 1.794263,0 1.794263,2.69074 0,2.69074 -0.777381,0 -1.31191,-0.58296 -1.31191,-1.34909 0,-0.76754 0.535375,-1.34165 1.31191,-1.34165 z"
         style="fill:#1b1918;fill-rule:evenodd;stroke-width:0.352778"
         id="path355" />
      <path
         d="m 67.940077,141.61833 -0.140865,-0.13229 c -0.415466,-0.39017 -0.941599,-0.54095 -1.502198,-0.54416 -0.760165,-0.004 -1.664194,0.3224 -1.654986,1.22354 0.0092,0.90463 0.883779,1.06373 1.592791,1.17994 0.255376,0.0418 0.835343,0.11705 0.989507,0.34371 0.03849,0.0566 0.05041,0.12167 0.04812,0.18923 -0.01492,0.44474 -0.616797,0.51354 -0.954229,0.51354 -0.443195,0 -0.928335,-0.16659 -1.189955,-0.54293 l -0.124318,-0.17889 -0.55552,0.49378 0.09084,0.13945 c 0.377295,0.57916 1.107087,0.8255 1.771509,0.8255 0.779709,0 1.673048,-0.29679 1.705856,-1.21475 0.03545,-0.99169 -0.922231,-1.14642 -1.68028,-1.27787 -0.265254,-0.0459 -0.946185,-0.12153 -0.95751,-0.48609 -0.01238,-0.40058 0.62477,-0.48094 0.9156,-0.47872 0.406576,0.003 0.708201,0.064 1.021221,0.3393 l 0.140617,0.12365 z"
         style="fill:#1b1918;fill-rule:evenodd;stroke-width:0.352778"
         id="path357" />
    </g>
  </g>
</svg>
